<svg width="374" height="215" viewBox="0 0 374 215" fill="none" xmlns="http://www.w3.org/2000/svg">
    <path d="M80.1 210.2C79.2 210.2 78.2 210 77.3 209.5L64.2 202.2C63.2 201.6 62 201.4 60.9 201.7L28.3 208C18.6 209.9 9.2 203.6 7.3 193.9L0.4 158.7C-0.5 154 0.4 149.2 3.1 145.3C5.8 141.3 9.8 138.6 14.5 137.7L72.2 126.4L72.4 127.4L72.2 126.4C76.9 125.5 81.7 126.4 85.6 129.1C89.6 131.8 92.3 135.8 93.2 140.5L100.1 175.7C101 180.4 100.1 185.2 97.4 189.1C94.7 193.1 90.7 195.8 86 196.7H85.8C85 196.8 84.6 197.6 84.7 198.3L85.7 203.4C86.1 205.6 85.3 207.8 83.5 209.1C82.4 209.9 81.3 210.2 80.1 210.2ZM61.9 199.5C63.1 199.5 64.2 199.8 65.3 200.4L78.4 207.7C79.7 208.4 81.1 208.3 82.3 207.5C83.5 206.6 84 205.3 83.7 203.8L82.7 198.7C82.3 196.9 83.5 195.1 85.4 194.7H85.6C89.8 193.9 93.4 191.5 95.7 188C98.1 184.5 98.9 180.2 98.1 176.1L91.2 140.9C90.4 136.7 88 133.1 84.5 130.8C81 128.4 76.7 127.6 72.6 128.4L14.9 139.7C10.7 140.5 7.1 142.9 4.8 146.4C2.4 149.9 1.6 154.2 2.4 158.3L9.3 193.5C11 202.1 19.4 207.7 28 206L60.7 199.6C61 199.6 61.4 199.5 61.9 199.5Z" fill="#6E717D"/>
    <path d="M287.2 85.2001C286.7 88.8001 285.9 92.3001 284.7 95.8001L280.2 109L274.8 124.7L262.3 161.1C258.5 172.1 247.5 178.6 236.1 176.6L168.2 164.7C162.6 163.7 157.7 160.8 154.1 156.5C153.3 155.6 152.6 154.6 152 153.5C148.5 147.6 147.8 140.5 150 134L175.9 58.5001C180.3 45.6001 189.3 34.6001 201 27.6001C205.3 25.1001 209.9 23.1001 214.7 21.8001C222.9 19.5001 231.6 19.0001 240.2 20.5001C256.8 23.4001 271.2 33.4001 279.8 47.9001C284.8 56.4001 287.5 65.9001 287.8 75.5001C287.8 78.7001 287.6 81.9001 287.2 85.2001Z" fill="#F0F1F6"/>
    <path d="M193 157L177.2 214.7L126.2 214.5L143.3 162.6L149.9 142.7L193 157Z" fill="#50515B"/>
    <path d="M278.8 91.8004C278.6 92.4004 278.4 93.1004 278.2 93.7004L255.8 159C253 167.3 244.5 172.2 235.9 170.7L56.8001 139.5C46.0001 137.6 39.5001 126.6 43.1001 116.2L64.3001 54.3004L69.0001 40.7004C77.3001 16.6004 101.8 2.10039 127 6.50039L238.2 26.0004C268.8 31.3004 287.7 62.3004 278.8 91.8004Z" fill="#D6D9E3"/>
    <path d="M267.7 124.401C261.8 141.501 255.8 159.001 255.8 159.001C255.2 160.601 254.5 162.101 253.5 163.501C249.6 169.001 242.8 172.001 235.9 170.801L56.8001 139.501C49.7001 138.301 44.5001 133.101 42.7001 126.701C41.8001 123.401 41.8001 119.801 43.0001 116.201L64.2001 54.3008L182.6 75.0008C186.8 75.7008 190.1 79.0008 191 83.1008C192.5 90.4008 197.3 96.0008 203.6 97.1008C211.9 98.5008 220.1 91.9008 223 82.0008L244.9 85.8008C262.7 89.0008 273.5 107.301 267.7 124.401Z" fill="#CBCFDA"/>
    <path d="M253.5 163.5C249.6 169 242.8 172 235.9 170.8L56.7997 139.5C49.6997 138.3 44.4997 133.1 42.6997 126.7L253.5 163.5Z" fill="#B0B4C1"/>
    <path d="M173.3 76.1003L150.9 141.4C147.1 152.4 136.1 158.9 124.7 156.9L56.7999 145C49.9999 143.8 44.1999 139.8 40.6999 133.8C38.5999 130.2 37.4999 126.3 37.3999 122.2C37.3999 119.5 37.7999 116.8 38.6999 114.2L59.9999 52.2003L64.5999 38.8003C68.9999 25.9003 77.8999 15.0003 89.6999 8.00029C101.5 1.00029 115.4 -1.49971 128.9 0.900293C145.5 3.80029 159.9 13.8003 168.5 28.3003C177 42.7003 178.8 60.2003 173.3 76.1003Z" fill="#F0F1F6"/>
    <path d="M163.3 73.0007L142.5 133.701L140.9 138.401C140.5 139.501 140 140.601 139.4 141.501C136.4 146.001 131 148.501 125.5 147.501L57.5999 135.601C53.5999 134.901 50.0999 132.501 48.0999 129.001C45.9999 125.501 45.5999 121.301 46.8999 117.501L51.0999 105.201L72.6999 42.0007C76.3999 31.2007 83.7999 22.1007 93.5999 16.3007C103.4 10.5007 115 8.4007 126.2 10.4007C140 12.8007 152 21.1007 159.2 33.2007C166.3 45.2007 167.8 59.7007 163.3 73.0007Z" fill="#6E717D"/>
    <path d="M163.3 73.0004L140.9 138.3C138.7 144.8 132.2 148.6 125.4 147.4L85.9999 140.5C83.5999 139.3 81.4999 137.5 80.0999 135.1C77.9999 131.6 77.5999 127.4 78.8999 123.6L104.8 48.1004C108.5 37.3004 115.9 28.2004 125.7 22.4004C130.9 19.3004 136.6 17.3004 142.4 16.4004C149.2 20.5004 154.9 26.2004 159 33.1004C166.3 45.2004 167.8 59.7004 163.3 73.0004Z" fill="#6E717D"/>
    <path d="M163.5 197L163.4 197.6C160 207.9 150.3 214.8 139.5 214.6L126.2 214.4L143.3 162.5L146.8 163.7C160.6 168.4 168.1 183.2 163.5 197Z" fill="#6E717D"/>
    <path d="M224.846 82.3836C226.777 71.3404 221.243 61.1461 212.485 59.6141C203.726 58.082 195.06 65.7923 193.129 76.8356C191.197 87.8788 196.731 98.073 205.489 99.6051C214.248 101.137 222.914 93.4268 224.846 82.3836Z" fill="#50515B"/>
    <path d="M163.3 73.0004L140.9 138.3C138.7 144.8 132.2 148.6 125.4 147.4L85.9999 140.5C83.5999 139.3 81.4999 137.5 80.0999 135.1C77.9999 131.6 77.5999 127.4 78.8999 123.6L104.8 48.1004C108.5 37.3004 115.9 28.2004 125.7 22.4004C130.9 19.3004 136.6 17.3004 142.4 16.4004C149.2 20.5004 154.9 26.2004 159 33.1004C166.3 45.2004 167.8 59.7004 163.3 73.0004Z" fill="#50515B"/>
    <path d="M223.2 82.1006C222.2 87.8006 219.3 92.5006 215.6 95.3006L214.9 99.1006L205.9 97.5006C198.9 95.8006 194.7 87.0006 196.3 77.4006C196.5 76.0006 196.9 74.7006 197.3 73.5006C199.9 66.1006 205.9 61.1006 212.1 61.8006L221.1 63.4006L220.4 67.2006C222.3 70.1006 223.5 74.0006 223.4 78.2006C223.6 79.4006 223.4 80.7006 223.2 82.1006Z" fill="#6E717D"/>
    <path d="M239.7 32H234.4C232.1 32 229.9 33 228.4 34.8L201 66.9C203.2 68.3 204.2 71.1 203.5 73.6C203.3 74.3 203.1 75.1 203 75.9C201.6 83.9 204.3 91.1 209 91.9C213.7 92.7 218.6 86.9 220 79L239.7 32Z" fill="#50515B"/>
    <path d="M232.104 83.6834C233.836 73.7826 229.242 64.7073 221.844 63.4131C214.446 62.119 207.044 69.096 205.312 78.9968C203.58 88.8976 208.174 97.973 215.572 99.2671C222.971 100.561 230.372 93.5842 232.104 83.6834Z" fill="#6E717D"/>
    <path d="M231.5 86.5001L245.2 39.4001C247 33.1001 238.7 29.1001 234.9 34.3001L208.2 71.0001L231.5 86.5001Z" fill="#6E717D"/>
    <path d="M230.301 83.358C231.614 75.8508 228.093 68.9628 222.435 67.9731C216.777 66.9835 211.126 72.267 209.813 79.7742C208.5 87.2814 212.022 94.1695 217.68 95.1591C223.337 96.1488 228.988 90.8652 230.301 83.358Z" fill="#F0F1F6"/>
    <path d="M229.097 83.132C230.02 77.8552 227.549 73.0143 223.578 72.3197C219.606 71.625 215.639 75.3396 214.716 80.6164C213.793 85.8932 216.264 90.734 220.235 91.4287C224.206 92.1233 228.174 88.4088 229.097 83.132Z" fill="#CBCFDA"/>
    <path opacity="0.5" d="M287.7 75.4004L287.6 75.9004C287.1 79.1004 284 81.1004 280.9 80.3004L246.8 105C245.5 105.9 243.8 106.2 242.3 105.9C235.3 104.4 227.7 106 221.9 111.1C212.9 119 211.4 132.6 218.4 142.3C218.7 142.7 219 143.1 219.3 143.4C220.4 144.7 222.5 144.4 223.1 142.8L229 127.5C229.7 125.8 231.2 124.6 233 124.3L238 123.5C239.8 123.2 241.6 123.9 242.8 125.3L246 129.2C247.1 130.6 247.4 132.5 246.8 134.2L241.6 147.8C240.9 149.5 242.6 151.3 244.4 150.7C247.1 149.9 249.7 148.5 252 146.6C257.7 142 260.7 135.3 260.7 128.5C260.7 126.9 261.4 125.4 262.6 124.3L280.4 108.7L284.9 95.5004C286.1 92.0004 286.9 88.5004 287.4 84.9004C287.6 81.9004 287.8 78.7004 287.7 75.4004Z" fill="#50515B"/>
    <path d="M368.6 47.6001C365.1 43.7001 360 41.4001 354.7 41.3001L348.9 41.2001C344.7 41.1001 340.7 42.3001 337.3 44.7001C332.3 48.2001 329.3 53.7001 329.1 59.8001C329.1 60.8001 328.6 61.7001 327.8 62.2001L270.3 103.9C269.6 104.4 268.7 104.7 267.9 104.7L261.9 104.6C252.3 104.4 243.2 109.4 238.3 118.4C233.4 127.3 234.6 138.2 240.8 146.2C241 146.4 241.1 146.6 241.3 146.8C242.2 147.9 243.5 148.5 244.8 148.5C246.4 148.5 248.7 148.6 250.6 148.6C252.6 148.7 254.4 147.4 255.2 145.6L261.1 130.3C261.5 129.4 262.3 128.7 263.3 128.7C264.1 128.6 264.9 129 265.4 129.7L267.8 132.7C268.4 133.4 268.5 134.4 268.2 135.2L263 148.6C262.6 149.7 262.5 150.9 262.9 152C263.6 153.9 265.3 155.2 267.3 155.2L273.1 155.3C273.6 155.3 274.1 155.2 274.6 155.1C277.7 154.1 280.6 152.6 283.1 150.6C289.2 145.7 292.8 138.4 292.8 130.5C292.8 129.6 293.2 128.7 293.8 128.2L348.1 80.4001C348.4 80.1001 348.7 79.9001 349.1 79.8001C349.7 79.8001 350.3 79.7001 350.9 79.7001C351.9 79.9001 352.8 80.0001 353.8 80.0001C358.3 80.1001 362.8 78.6001 366.3 75.8001C370.5 72.5001 373.1 67.5001 373.5 62.2001C374 56.8001 372.2 51.7001 368.6 47.6001ZM354.4 59.4001L352.5 64.2001C352.5 64.3001 352.4 64.4001 352.3 64.4001H352.1L349.5 61.2001C349.4 61.1001 349.4 61.0001 349.5 61.0001L351.4 56.2001C351.4 56.1001 351.5 56.1001 351.6 56.0001H351.8L354.4 59.2001C354.4 59.2001 354.4 59.3001 354.4 59.4001Z" fill="#B0B4C1"/>
    <path d="M292.2 126.3L346.4 78.5005C347.7 77.3005 349.4 76.8005 351.1 77.1005C355.8 78.0005 360.8 76.9005 364.8 73.7005C372.3 67.7005 373.3 56.5005 366.7 49.3005C361.1 43.1005 351.5 42.0005 344.6 46.9005C340.1 50.1005 337.7 55.0005 337.5 60.0005C337.4 61.8005 336.5 63.4005 335.1 64.4005L276.6 106.8C275.3 107.7 273.6 108.1 272.1 107.7C265.1 106.2 257.5 107.8 251.7 112.9C242.7 120.8 241.2 134.4 248.2 144.1C248.5 144.5 248.8 144.9 249.1 145.2C250.2 146.5 252.3 146.2 252.9 144.6L258.8 129.3C259.5 127.6 261 126.4 262.8 126.1L267.8 125.3C269.6 125 271.4 125.7 272.6 127.1L275.8 131C276.9 132.4 277.2 134.3 276.6 136L271.3 149.6C270.6 151.3 272.2 153.1 274 152.5C276.7 151.7 279.3 150.3 281.7 148.4C287.4 143.8 290.4 137.1 290.4 130.3C290.3 128.9 291 127.4 292.2 126.3ZM358.5 67.0005L353.4 67.8005C352.4 67.9005 351.4 67.6005 350.8 66.8005L347.6 62.8005C347 62.0005 346.8 61.0005 347.2 60.1005L349.1 55.3005C349.5 54.4005 350.3 53.7005 351.3 53.6005L356.4 52.8005C357.4 52.7005 358.4 53.0005 359 53.8005L362.2 57.8005C362.8 58.6005 363 59.6005 362.6 60.5005L360.7 65.3005C360.3 66.2005 359.5 66.8005 358.5 67.0005Z" fill="#D6D9E3"/>
    <path d="M342 73.6998L289.4 120.2C288.2 121.3 286.3 121.1 285.3 120C285.2 119.9 285.1 119.7 285 119.6L281.7 114.2C280.9 112.9 281.2 111.3 282.4 110.4L338 68.9998C338.3 68.7998 338.7 68.5998 339 68.4998C340.1 68.1998 341.4 68.5998 342.1 69.5998L342.3 69.8998C343.3 71.0998 343.1 72.6998 342 73.6998Z" fill="#B0B4C1"/>
    <path d="M339.1 72.8004L286.5 119.3C286.1 119.6 285.7 119.8 285.3 119.9C285.2 119.8 285.1 119.6 285 119.5L281.7 114.1C280.9 112.8 281.2 111.2 282.4 110.3L338 68.9004C338.3 68.7004 338.7 68.5004 339 68.4004C339.1 68.5004 339.2 68.6004 339.2 68.7004L339.4 69.0004C340.4 70.2004 340.2 71.9004 339.1 72.8004Z" fill="#CBCFDA"/>
    <path opacity="0.5" d="M109.2 105.501C108.8 107.601 107.4 109.301 105.3 110.001C105.1 110.101 104.8 110.101 104.5 110.201L37.3999 122.301C37.3999 119.601 37.7999 116.901 38.6999 114.301L59.9999 52.2007L93.0999 46.3007C96.1999 45.7007 99.1999 47.8007 99.7999 50.9007L109.2 103.601C109.3 104.201 109.3 104.901 109.2 105.501Z" fill="#50515B"/>
    <path d="M35.8999 131.701C32.3999 131.701 29.1999 129.801 27.4999 126.801C26.8999 125.901 26.5999 124.801 26.3999 123.701L16.8999 71.0006C16.3999 68.4006 16.9999 65.8006 18.4999 63.7006C19.9999 61.6006 22.1999 60.1006 24.7999 59.7006L105.2 45.3006C105.8 45.2006 106.4 45.1006 106.9 45.1006C111.6 45.1006 115.7 48.5006 116.5 53.1006L126 105.801C126.2 106.901 126.2 108.001 126 109.101C125.4 112.701 122.9 115.601 119.5 116.701C119.1 116.901 118.6 117.001 118.1 117.101L37.6999 131.501C37.1999 131.601 36.6999 131.601 36.2999 131.601C36.0999 131.701 35.9999 131.701 35.8999 131.701Z" fill="#FFB640"/>
    <path d="M112.5 53.8001L122 106.5C122.1 107.2 122.1 107.8 122 108.5C121.7 110.6 120.2 112.3 118.1 113C117.8 113.1 117.6 113.2 117.3 113.2L36.9997 127.6C36.6997 127.6 36.4997 127.7 36.1997 127.7C33.9997 127.8 32.0997 126.6 30.9997 124.8C30.6997 124.2 30.4997 123.6 30.2997 123L20.7997 70.3001C20.1997 67.2001 22.2997 64.2001 25.3997 63.6001L105.8 49.2001C109 48.6001 112 50.7001 112.5 53.8001Z" fill="#FFB640"/>
    <path d="M112.5 53.8009L113.2 58.0009C113.8 61.4009 112.9 65.0009 110.7 67.6009L81.4998 102.801C80.9998 103.401 80.4998 103.901 79.8998 104.401C76.1998 107.401 70.9998 107.901 66.7998 105.501L31.1998 84.8009L27.2998 82.5009C24.2998 80.8009 22.1998 77.8009 21.5998 74.3009L20.8998 70.1009C20.2998 67.0009 22.3998 64.0009 25.4998 63.4009L105.9 49.0009C109 48.6009 112 50.7009 112.5 53.8009Z" fill="#EDA235"/>
    <path d="M32.7 117.3C32.2 117.3 31.8 117 31.7 116.5C31.6 116 32 115.4 32.5 115.3L49 112.4C49.6 112.3 50.1 112.7 50.2 113.2C50.3 113.7 49.9 114.3 49.4 114.4L32.9 117.3C32.8 117.2 32.8 117.3 32.7 117.3Z" fill="#FFCA85"/>
    <path d="M33.5999 122.101C33.0999 122.101 32.6999 121.801 32.5999 121.301C32.4999 120.801 32.8999 120.201 33.3999 120.101L60.1999 115.301C60.7999 115.201 61.2999 115.601 61.3999 116.101C61.4999 116.601 61.0999 117.201 60.5999 117.301L33.6999 122.001L33.5999 122.101Z" fill="#FFCA85"/>
    <path d="M193 106.5C192.9 106.5 192.9 106.5 192.8 106.5L172.2 102.9C171.7 102.8 171.3 102.3 171.4 101.7C171.5 101.1 172 100.8 172.6 100.9L193.2 104.5C193.7 104.6 194.1 105.1 194 105.7C193.9 106.2 193.5 106.5 193 106.5Z" fill="#6E717D"/>
    <path d="M190.9 112.5C190.8 112.5 190.8 112.5 190.7 112.5L170.1 108.9C169.6 108.8 169.2 108.3 169.3 107.7C169.4 107.1 169.9 106.8 170.5 106.9L191.1 110.5C191.6 110.6 192 111.1 191.9 111.7C191.8 112.2 191.4 112.5 190.9 112.5Z" fill="#6E717D"/>
    <path d="M188.7 118.5C188.6 118.5 188.6 118.5 188.5 118.5L167.9 114.9C167.4 114.8 167 114.3 167.1 113.7C167.2 113.2 167.7 112.8 168.3 112.9L188.9 116.5C189.4 116.6 189.8 117.1 189.7 117.7C189.6 118.1 189.2 118.5 188.7 118.5Z" fill="#6E717D"/>
    <path d="M70.0998 162.9C69.8998 161.9 69.2998 161.1 68.4998 160.5C69.0998 159.5 69.2998 158.3 68.8998 157.2C68.2998 155.2 66.0998 153.9 63.8998 154.3L53.7998 156.3C53.9998 154.7 54.2998 151.7 53.7998 149.5C53.0998 145.9 49.4998 143.5 47.5998 143.9C45.8998 144.2 44.8998 145.4 44.7998 145.5C44.5998 145.7 44.5998 146 44.5998 146.2L45.6998 151.8L42.9998 162.9L42.7998 163L42.6998 162.7C42.5998 162.2 42.1998 162 41.6998 162L33.4998 163.6C31.1998 164 29.7998 166.2 30.1998 168.5L32.7998 181.6C33.1998 183.9 35.3998 185.3 37.6998 184.9L42.5998 183.9C44.3998 183.6 45.6998 182.1 45.8998 180.4C47.3998 180.8 49.2998 180.8 50.3998 180.6L65.3998 177.6C67.1998 177.2 68.4998 175.7 68.4998 174C68.4998 173.1 68.1998 172.3 67.6998 171.6C68.7998 170.8 69.3998 169.3 69.0998 167.9C68.9998 167.3 68.6998 166.8 68.3998 166.3C69.7998 165.7 70.2998 164.3 70.0998 162.9ZM42.3998 182.4L37.4998 183.4C36.0998 183.7 34.7998 182.8 34.5998 181.4L31.9998 168.3C31.6998 166.9 32.5998 165.6 33.9998 165.4L41.3998 164L41.5998 164.8L44.4998 179.5C44.6998 180.8 43.7998 182.1 42.3998 182.4ZM66.9998 165.6C66.6998 165.7 66.4998 166 66.3998 166.3C66.3998 166.6 66.4998 166.9 66.7998 167.1C67.2998 167.4 67.5998 167.9 67.6998 168.5C67.8998 169.5 67.2998 170.6 66.2998 170.9C65.9998 171 65.7998 171.3 65.6998 171.6C65.6998 171.9 65.7998 172.2 66.0998 172.4C66.6998 172.8 67.0998 173.5 67.0998 174.2C67.0998 175.2 66.2998 176 65.2998 176.2L50.2998 179.2C49.0998 179.4 46.9998 179.3 45.9998 178.8L43.2998 164.9L44.3998 164.1C44.4998 164 44.6998 163.8 44.6998 163.6L47.4998 152C47.4998 151.9 47.4998 151.8 47.4998 151.6L46.4998 146.3C46.7998 146 47.2998 145.7 48.0998 145.5C48.9998 145.3 51.7998 147.1 52.2998 149.8C52.8998 152.7 52.0998 157.1 52.0998 157.2C52.0998 157.5 52.0998 157.7 52.2998 157.9C52.4998 158.1 52.7998 158.2 52.9998 158.1L64.2998 155.9C65.6998 155.6 66.9998 156.4 67.3998 157.6C67.6998 158.5 67.3998 159.5 66.6998 160.1C66.4998 160.3 66.3998 160.6 66.4998 160.9C66.5998 161.2 66.7998 161.4 67.0998 161.5C67.8998 161.7 68.3998 162.3 68.5998 163.1C68.5998 164.3 67.9998 165.3 66.9998 165.6Z" fill="#6E717D"/>
</svg>
