<svg width="220" height="208" viewBox="0 0 220 208" fill="none" xmlns="http://www.w3.org/2000/svg">
    <path d="M24.3999 15.9999L78.7999 22.5999C84.9999 23.3999 89.4999 28.9999 88.6999 35.1999L86.4999 53.9999L93.4999 54.7999C95.4999 54.9999 96.2999 57.5999 94.7999 58.8999L84.7999 68.0999L83.3999 79.2999C82.5999 85.4999 76.9999 89.9999 70.7999 89.1999L16.3999 82.5999C10.1999 81.7999 5.69989 76.1999 6.49989 69.9999L11.7999 25.8999C12.4999 19.6999 18.1999 15.2999 24.3999 15.9999Z" fill="#50515B"/>
    <path d="M56.4998 36.8H56.3998L24.6998 33C24.1998 32.9 23.7998 32.4 23.7998 31.9C23.8998 31.4 24.3998 31 24.8998 31L56.5998 34.8C57.0998 34.9 57.4998 35.4 57.4998 35.9C57.4998 36.4 56.9998 36.8 56.4998 36.8Z" fill="#F0F1F6"/>
    <path d="M69.9 49.6H69.8L23.4 44C22.9 43.9 22.5 43.4 22.5 42.9C22.6 42.4 23.1 42 23.6 42L70 47.6C70.5 47.7 70.9 48.2 70.9 48.7C70.9 49.2 70.4 49.6 69.9 49.6Z" fill="#F0F1F6"/>
    <path d="M68.5997 60.6H68.4997L22.0997 55C21.5997 54.9 21.1997 54.4 21.1997 53.9C21.2997 53.4 21.7997 53 22.2997 53L68.6997 58.6C69.1997 58.7 69.5997 59.2 69.5997 59.7C69.4997 60.3 69.0997 60.6 68.5997 60.6Z" fill="#F0F1F6"/>
    <path d="M67.2997 71.7H67.1997L40.5997 68.5C40.0997 68.4 39.6997 67.9 39.6997 67.4C39.7997 66.9 40.2997 66.5 40.7997 66.5L67.3997 69.7C67.8997 69.8 68.2997 70.3 68.2997 70.8C68.1997 71.3 67.7997 71.7 67.2997 71.7Z" fill="#F0F1F6"/>
    <path d="M211.7 202.8L207.6 207.7H156.3C156.4 207.5 156.5 207.2 156.6 207C157.1 206 157.7 205.1 158.4 204.2L171.2 188.9L175.4 183.9L181.1 177.1C182 176 183.1 175.1 184.3 174.3C189 171.4 195.3 171.6 199.8 175.4L210.1 184.1C211.9 185.6 213.1 187.4 213.9 189.4C215.6 193.8 214.9 198.9 211.7 202.8Z" fill="#FF9597"/>
    <path d="M206.5 195.799C193.7 203.399 177.2 199.099 169.6 186.299L146 146.299C138.4 133.499 142.7 116.999 155.5 109.399L162.6 105.199C171.5 99.8995 182.9 102.899 188.2 111.799L216 158.899C223.5 171.799 219.3 188.299 206.5 195.799Z" fill="#F0F1F6"/>
    <path d="M161.2 150.7L159.6 169.6L156.5 207L156.4 207.7H75.2998L76.8998 188.1L78.5998 167.5V167.4L79.7998 153.4L80.5998 144.1C81.6998 130.6 89.2998 119.2 100.1 112.7C103.4 110.7 107 109.2 110.8 108.2C112.6 107.7 114.4 107.4 116.2 107.2C116.3 107.2 116.4 107.2 116.5 107.2C119 106.9 121.5 106.9 124.1 107.1L125.2 107.2C128 107.5 130.7 108.1 133.2 108.9C134.3 109.2 135.4 109.6 136.4 110.1C136.5 110.1 136.7 110.2 136.8 110.3C140.6 112 144.2 114.2 147.3 116.9C156.8 125 162.3 137.3 161.2 150.7Z" fill="#EA501E"/>
    <path d="M181.3 111.8L180.8 118.4L180 128L177.9 153.3L175.4 183.8L174.7 192.6V192.7C174.3 198 172.9 203 170.8 207.6H92.5C92.5 206.6 92.5 205.6 92.6 204.5L94.6 180.5L100.2 112.6L100.8 105L107.8 105.6L115.6 106.2L116.3 106.3L124.1 106.9L125.2 107L133.3 107.7L148.8 109H148.9C149.2 109 149.6 109.1 149.9 109.1L155 109.5L160.5 109.9L162 110L168.6 110.5L172.4 110.8L177.2 111.2L181.3 111.8Z" fill="#F9F9FA"/>
    <path d="M162.7 103L173.6 103.8L170.6 123L157.3 121.4L162.7 103Z" fill="#F9F9FA"/>
    <path d="M144.7 49.1002C136.1 48.4002 128.5 54.8002 127.8 63.4002L125.9 86.8002C125.2 95.4002 131.6 103 140.2 103.7C148.8 104.4 156.4 98.0002 157.1 89.4002L159 66.0002C159.8 57.4002 153.3 49.8002 144.7 49.1002Z" fill="#FF9597"/>
    <path d="M156.2 89.8L125.4 87.3C121.3 87 117.6 89.9999 117.3 94.1999L116.2 107.6L162 111.4L163.1 98C163.5 93.7 160.4 90.1 156.2 89.8Z" fill="#F9F9FA"/>
    <path d="M186.1 150.7C186.1 151.2 186.1 151.6 186 152.1C186 152.3 186 152.6 186 152.8L185.9 153.8C185.9 153.9 185.9 154 185.9 154L184.2 174.4L182.3 197.5L181.5 207.7H100.4L103.4 170.8L105.4 146.2C106.4 134.2 112.5 123.9 121.4 117.2C122.4 116.5 123.4 115.8 124.4 115.1C128.1 112.8 132.1 111.1 136.4 110.1H136.5C137.5 109.9 138.6 109.7 139.7 109.5C142.7 109.1 145.7 109 148.8 109.2H148.9C149.2 109.2 149.6 109.3 149.9 109.3C151.4 109.5 153 109.7 154.5 110.1C155.7 110.4 156.8 110.7 158 111C158.7 111.2 159.4 111.5 160.1 111.7C163.8 113.1 167.2 115 170.3 117.4C170.6 117.7 171 117.9 171.3 118.2C174.7 121 177.6 124.3 179.9 128C184.1 134.6 186.4 142.4 186.1 150.7Z" fill="#FF5A20"/>
    <path d="M78.8995 167.3C78.1995 168.1 77.3995 168.9 76.3995 169.5L63.0996 178.5C57.5996 182.2 50.1995 180.8 46.4995 175.3L25.2996 144C21.5996 138.5 22.9995 131.1 28.4995 127.4L39.6995 119.8L41.7996 118.4C47.2996 114.7 54.6995 116.1 58.3995 121.6L79.5996 153C82.6996 157.5 82.1995 163.4 78.8995 167.3Z" fill="#FF9496"/>
    <path d="M78.8997 167.3L76.7997 168.7C71.2997 172.4 63.8997 171 60.1997 165.5L38.9997 134.2C35.8997 129.7 36.3997 123.8 39.6997 119.9L41.7997 118.5C47.2997 114.8 54.6997 116.2 58.3997 121.7L79.5997 153.1C82.6997 157.5 82.1997 163.4 78.8997 167.3Z" fill="#FFAEB0"/>
    <path d="M101.5 100.5C101.8 100.5 112.9 101.4 119.9 102C123.6 102.3 127.1 103.6 130.1 105.6L140.6 112.8L128.3 122.9L101.5 100.5Z" fill="#FF5A20"/>
    <path d="M58.0997 181.4C46.8997 171.6 45.8997 154.5 55.6997 143.4L87.9997 106.9C94.7997 99.1996 106.6 98.4996 114.3 105.3L120.5 110.8C131.7 120.6 132.7 137.7 122.9 148.8L96.0997 179C86.2997 190.2 69.1997 191.2 58.0997 181.4Z" fill="#F0F1F6"/>
    <path d="M163.1 98.5996H163.4C165.2 98.7996 167 99.4996 168.4 100.7C174.3 105.8 188.7 121.9 186 154L170.9 152.8C174.9 104.2 162.8 103.1 162.8 103.1L163.1 98.5996Z" fill="#FF5A20"/>
    <path d="M131.3 23.5998L128 23.2998C118.5 22.4998 110.2 29.5998 109.4 39.0998L107.7 59.2998C106.9 68.7998 114 77.0998 123.5 77.8998L126.8 78.1998C136.3 78.9998 144.6 71.8998 145.4 62.3998L147.1 42.1998C147.8 32.6998 140.8 24.3998 131.3 23.5998Z" fill="#FF9597"/>
    <path d="M99.7 63.2999L112.8 50.0999C113.2 49.6999 113.4 49.1999 113.4 48.6999L114.6 34.5999C114.7 33.3999 115.8 32.4999 117 32.5999L119.2 32.7999C121.1 32.9999 122.3 30.7999 121.2 29.2999L114.5 20.1999C110.8 15.1999 111.7 8.19993 116.4 4.29993L118.8 2.29993C121.4 0.199929 124.9 -0.300071 127.9 1.09993L165.9 19.0999C166.6 19.3999 167.1 20.1999 167.2 20.9999L167.5 25.2999C167.6 26.4999 168.5 27.3999 169.7 27.3999L174 27.4999C174.8 27.4999 175.5 27.9999 175.9 28.5999L178.7 33.4999C180.6 36.8999 180.6 40.9999 178.8 44.3999L177 47.5999C176.4 48.6999 176.8 49.9999 177.9 50.5999C178.7 50.9999 179.2 51.9999 179 52.8999L177 65.8999C176.8 67.0999 175.7 67.8999 174.5 67.7999L172.2 67.4999C170.8 67.2999 169.6 68.3999 169.7 69.7999L169.8 75.0999C169.8 76.2999 168.9 77.2999 167.7 77.3999L150.4 77.9999C149.9 77.9999 149.4 77.8999 149.1 77.5999L132.6 66.3999C132 65.9999 131.2 65.8999 130.5 66.1999L107.9 75.7999C104.6 77.1999 100.7 75.8999 98.8999 72.7999L98.4999 72.1999C96.8999 69.2999 97.4 65.6999 99.7 63.2999Z" fill="#3E4144"/>
    <path d="M129.3 45.2995C124.9 44.8995 121 48.1995 120.7 52.5995L120.1 59.7995C119.7 64.1995 123 68.0995 127.4 68.3995C131.8 68.7995 135.7 65.4995 136 61.0995L136.6 53.8995C137 49.4995 133.7 45.6995 129.3 45.2995Z" fill="#FF9597"/>
    <path d="M15.2998 126.7L4.49977 115.7C3.69977 114.9 2.99976 114 2.39976 113C-0.60024 108.2 -0.600234 101.9 2.49977 97.0003L16.4998 75.1003C20.6998 68.5003 30.1998 68.2003 34.7998 74.6003L51.3998 97.5003C52.9998 99.8003 53.2998 102.6 52.3998 105C51.7998 106.6 50.6998 108 49.0998 109L18.8998 127.3C17.7998 127.9 16.2998 127.7 15.2998 126.7Z" fill="#EDA235"/>
    <path d="M15.2999 126.7L4.49991 115.7C3.69991 114.9 2.9999 114 2.3999 113C2.5999 110.6 3.29991 108.2 4.69991 106.1L18.6999 84.1999C22.8999 77.5999 32.3999 77.2999 36.9999 83.6999L52.3999 104.9C51.7999 106.5 50.6999 107.9 49.0999 108.9L18.8999 127.2C17.7999 127.9 16.2999 127.7 15.2999 126.7Z" fill="#FFB640"/>
    <path d="M50.6 103.8L56.9 111.1C59.1 113.6 58.6 117.5 55.8 119.4L23.9 141.7C22.5 142.7 20.6 141.9 20.3 140.2L17 123.2L50.6 103.8Z" fill="#FFB640"/>
    <path d="M52.3997 104.8L58.1997 86.4998C58.9997 84.0998 57.2997 81.4998 54.7997 81.2998L52.7997 81.0998C50.4997 80.8998 48.1997 82.0998 47.1997 84.0998L43.6997 90.8998L52.3997 104.8Z" fill="#EDA235"/>
</svg>
