<svg width="240" height="216" viewBox="0 0 240 216" fill="none" xmlns="http://www.w3.org/2000/svg">
    <path d="M217.6 0.0995218L149.5 7.29952C141.7 8.09952 136 15.0995 136.9 22.8995L139.4 46.2995L130.7 47.1995C128.2 47.4995 127.1 50.5995 129 52.2995L141.4 63.9995L142.9 78.0995C143.7 85.8995 150.7 91.5995 158.5 90.6995L226.6 83.4995C234.4 82.6995 240.1 75.6995 239.2 67.8995L233.3 12.5995C232.4 4.89952 225.4 -0.700478 217.6 0.0995218Z" fill="#D6D9E3"/>
    <path d="M153.4 27.1991C152.9 27.1991 152.5 26.7991 152.4 26.2991C152.3 25.7991 152.7 25.2991 153.3 25.1991L187.4 21.3991C187.9 21.2991 188.4 21.6991 188.5 22.2991C188.6 22.7991 188.2 23.2991 187.6 23.3991L153.5 27.1991H153.4Z" fill="#F0F1F6"/>
    <path d="M155.2 43.1999C154.7 43.1999 154.3 42.7999 154.2 42.2999C154.1 41.7999 154.5 41.2999 155.1 41.1999L222.6 33.6999C223.2 33.5999 223.6 33.9999 223.7 34.5999C223.8 35.1999 223.4 35.5999 222.8 35.6999L155.3 43.1999H155.2Z" fill="#F0F1F6"/>
    <path d="M157 59.2995C156.5 59.2995 156.1 58.8995 156 58.3995C155.9 57.8995 156.3 57.3995 156.9 57.2995L224.4 49.7995C225 49.6995 225.4 50.0995 225.5 50.6995C225.6 51.1995 225.2 51.6995 224.6 51.7995L157.1 59.2995C157.1 59.2995 157.1 59.2995 157 59.2995Z" fill="#F0F1F6"/>
    <path d="M187.6 71.1998L226.3 66.7998" stroke="#F0F1F6" stroke-width="2" stroke-miterlimit="10" stroke-linecap="round"/>
    <path d="M47.1998 214.7H13.6998L10.0998 196.2L9.2998 192.1L38.6998 186.4L41.4998 185.8L44.4998 200.8L47.1998 214.7Z" fill="#FF9597"/>
    <path d="M61.0999 70.1995L50.2999 55.0995C46.8999 50.3995 47.1999 43.9995 50.8999 39.5995L54.4999 35.2995L53.7999 28.9995C53.3999 24.8995 55.4999 21.0995 59.0999 19.1995L94.0999 1.09954C98.0999 -1.00046 103.1 -0.100457 106.1 3.29954L108.1 5.49954C109.7 7.29954 110.7 9.59954 110.9 11.9995V12.4995C111 13.7995 112.1 14.7995 113.5 14.7995H114.6L118 17.9995C122.5 22.2995 123.3 29.1995 119.7 34.2995L97.0999 66.6995L61.0999 70.1995Z" fill="#3E4144"/>
    <path d="M96.7332 59.7782L64.3892 62.9453L67.147 91.1095L99.491 87.9423L96.7332 59.7782Z" fill="#FF9597"/>
    <path d="M113.4 37.5L115.5 58.5C116.4 67.7 109.7 75.8 100.5 76.7L83.1999 78.4C73.9999 79.3 65.8999 72.6 64.9999 63.4L62.8999 42.4C61.9999 33.2 68.6999 25.1 77.8999 24.2L95.1999 22.5C104.4 21.6 112.5 28.3 113.4 37.5Z" fill="#FFAEB0"/>
    <path d="M104.6 34.4992L107.4 63.0992C108.1 70.1992 102.9 76.4992 95.7999 77.1992L83.1999 78.3992C73.9999 79.2992 65.8999 72.5992 64.9999 63.3992L62.8999 42.3992C61.9999 33.1992 68.6999 25.0992 77.8999 24.1992L90.4999 22.9992C97.5999 22.1992 103.9 27.3992 104.6 34.4992Z" fill="#FF9597"/>
    <path d="M106.3 19.5L100.6 30.5C97.3999 36.7 92.2999 41.5 85.9999 44.4L56.2999 57.7L54.8999 43L64.8999 24.6L106.3 19.5Z" fill="#3E4144"/>
    <path d="M73.5291 64.6358C78.7264 62.4625 80.8151 55.62 78.1943 49.3527C75.5735 43.0853 69.2357 39.7665 64.0385 41.9398C58.8412 44.1132 56.7525 50.9557 59.3733 57.223C61.994 63.4903 68.3318 66.8091 73.5291 64.6358Z" fill="#FF9597"/>
    <path d="M109.3 101.199L102.5 101.899L59.9998 105.999L59.5998 101.599C59.2998 98.6994 60.3998 95.8994 62.2998 93.9994C63.7998 92.3994 65.8998 91.3994 68.1998 91.0994L98.3998 88.1994C103.7 87.6994 108.4 91.4995 108.9 96.7995L109.3 101.199Z" fill="#D6D9E3"/>
    <path d="M102.5 101.8L59.9998 106L59.5998 101.6C59.2998 98.6998 60.3998 95.8998 62.2998 93.9998L91.7998 91.0998C97.0998 90.5998 101.8 94.3998 102.3 99.6998L102.5 101.8Z" fill="#F0F1F6"/>
    <path d="M151.1 190.399L30 202.199C7.59996 204.399 -7.70004 179.999 4.09996 160.799L30.6 117.699C34.2 111.799 40.4 107.899 47.3 107.199L115.7 100.499C122.6 99.7991 129.4 102.399 134.2 107.499L168.5 144.599C183.7 161.199 173.5 188.199 151.1 190.399Z" fill="#F0F1F6"/>
    <path d="M61.1999 106.1C61.1999 106.1 55.5999 115 54.3999 129.7C53.7999 137.3 60.0999 143.6 67.6999 142.9L120.7 137.8L124.7 144.9L44.8999 154.7V123.4L56.5999 106.5L61.1999 106.1Z" fill="#D6D9E3"/>
    <path d="M143.2 214.7H136.2L134 215.4C133.9 215.2 133.8 214.9 133.7 214.7H41.4999L40.1999 201.2L38.7999 186.4L37.4999 173.2V172.9C37.4999 172.4 37.3999 171.5 37.1999 169.9L37.0999 168.8C36.7999 165.4 36.1999 159.9 35.3999 151.9L44.9999 151L50.0999 150.5L121.5 143.5L123.9 143.3L136.2 142.1C137 150.1 137.5 155.6 137.9 159L138 160.1L138.1 161C138.1 161.1 138.1 161.3 138.1 161.4L138.2 162.1V162.6C138.2 162.7 138.2 162.7 138.2 162.8V163.1V163.2V163.3V163.8L140.2 184.4L140.9 191.4L141.9 201.3L142.7 209.2L143 212.5L143.2 214.7Z" fill="#FF5A20"/>
    <path d="M37.4 173.2C37.4 173.2 36.8 167 35.3 151.9C32.7 125.4 54.7 106.5 54.7 106.5L58.4 106.1C58.4 106.1 46.3 112.5 50 150.4L37.4 173.2Z" fill="#FF5A20"/>
    <path d="M129.4 214.7H55.3L53.8 199.9L52.4 185.3L51.6 177.1L51.4 174.9L51 170.8L50.6 166.5C50 160.6 53.5 155.1 58.8 153C59.9 152.6 61.1 152.3 62.3 152.1L79 150.5L109.7 147.5C116.9 146.8 123.3 152.1 124 159.3L125.5 174.9L126.4 184.3L127.2 192.8L127.5 195.4L128.8 208.6L128.9 209.8L129.4 214.7Z" fill="#FF642D"/>
    <path d="M172.6 174.8C172.6 180 170.4 185.2 166.2 188.9L139.5 212C136.8 214.4 132.6 214.1 130.3 211.3L121.2 200.8L114.4 193C112 190.3 112.3 186.2 115.1 183.8L141.8 160.7C149.1 154.4 160 154.7 166.9 161.3C167.3 161.7 167.7 162.1 168.1 162.6C171.1 166.1 172.6 170.5 172.6 174.8Z" fill="#FF9597"/>
    <path d="M172.6 174.799C172.6 179.999 170.4 185.199 166.2 188.899L139.5 211.999C136.8 214.399 132.6 214.099 130.3 211.299L121.2 200.799L165.6 162.399C166.3 161.799 167.5 161.799 168.1 162.599C171.1 166.099 172.6 170.499 172.6 174.799Z" fill="#FFAEB0"/>
    <path d="M138.1 163.299C138.1 163.299 137.5 157.099 136 141.999C133.4 115.499 108.2 101.199 108.2 101.199L104.5 101.599C104.5 101.599 117.6 105.599 121.3 143.499L138.1 163.299Z" fill="#FF5A20"/>
    <path d="M109.8 170.899L66.5998 175.099C65.7998 175.199 65.0998 174.599 64.9998 173.799L64.5998 169.999C64.4998 169.199 65.0998 168.499 65.8998 168.399L109.1 164.199C109.9 164.099 110.6 164.699 110.7 165.499L111.1 169.299C111.3 170.099 110.7 170.799 109.8 170.899Z" fill="#EE5124"/>
    <path opacity="0.5" d="M110.7 210.4L106.4 214.6H95L85.1 204.6L82.1 201.6L77.9 197.4L69.5 189C63.8 190.9 57.2 189.6 52.4 185.2C52.2 185 52 184.8 51.8 184.6C49.1 181.9 47.6 178.7 47 175.3C46.8 174.1 48 173.2 49.1 173.7L50.6 174.4L51.4 174.8L56.7 177.2C59.4 178.4 62.6 177.2 63.9 174.5L64 174.3L65 172.2V172C65.5 170.9 65.6 169.7 65.4 168.7C65.1 167.1 64 165.6 62.3 164.9L54.5 161.3C53.4 160.8 53.3 159.3 54.3 158.6C55.1 158.1 55.9 157.7 56.8 157.4C62.9 155 70.2 156.4 75.3 161.5C77 163.2 78.3 165.2 79.1 167.3C80 169.4 80.4 171.7 80.4 173.9C80.4 175.7 80.1 177.5 79.5 179.2L82.7 182.4L92.4 192.1L94.9 194.7L96 195.8L108 207.9L110.7 210.4Z" fill="#50515B"/>
    <path d="M113.8 207.4L106.5 214.7H101.2L87.8998 201.3L85.3998 198.7L83.5998 196.9L72.5998 186C66.6998 188 59.6998 186.5 54.8998 181.6C53.4998 180.2 52.3998 178.6 51.5998 177C51.1998 176.2 50.7998 175.3 50.5998 174.4C50.3998 173.7 50.1998 173 50.0998 172.3C49.9998 171.6 50.3998 170.9 50.9998 170.7C51.3998 170.5 51.7998 170.5 52.1998 170.7L59.7998 174.2C61.1998 174.8 62.6998 174.8 63.9998 174.3C64.3998 174.1 64.7998 174 65.0998 173.7C65.8998 173.2 66.5998 172.4 66.9998 171.5L68.1998 169C68.2998 168.8 68.3998 168.5 68.4998 168.2C69.1998 165.7 67.9998 162.9 65.4998 161.8L57.6998 158.2C57.2998 158 56.9998 157.7 56.8998 157.3C56.6998 156.7 56.8998 155.9 57.4998 155.5C63.8998 151.5 72.5998 152.5 78.3998 158.3C80.7998 160.7 82.3998 163.6 83.0998 166.7C83.5998 168.9 83.6998 171.2 83.2998 173.5C83.1998 174.4 82.8998 175.2 82.6998 176.1L95.5998 189.1L98.0998 191.7L101.6 195.2L113.8 207.4Z" fill="#D6D9E3"/>
    <path d="M80.3002 183.399C78.4002 184.999 78.4002 187.899 80.1002 189.699L100.8 210.499C102.5 212.199 105.2 212.199 106.9 210.499C108.6 208.799 108.6 206.099 106.9 204.399L86.2002 183.599C84.6002 181.999 82.0002 181.899 80.3002 183.399Z" fill="#CBCFDA"/>
    <path d="M133.7 214.699H75.0998C74.5998 211.299 75.6998 207.599 78.5998 204.999L82.0998 201.699L85.2998 198.699L87.2998 196.799L87.5998 196.499L92.3998 191.999L93.5998 190.899L95.5998 188.999L99.4998 185.299C101.6 183.399 104.4 182.799 106.9 183.399C107.2 183.499 107.4 183.499 107.7 183.599C109.1 184.099 110.3 184.899 111.3 186.199L112.9 188.299L117.1 193.599L122.1 199.899L128.8 208.399L132.2 212.699L133.4 214.299C133.5 214.499 133.6 214.599 133.7 214.699Z" fill="#EDA235"/>
    <path d="M133.7 214.699H85C83.5 211.599 83.5 207.899 85.1 204.699C85.7 203.599 86.4 202.499 87.4 201.599L87.8 201.299L89.8 199.399L93.5 195.999L95 194.599L96.2 193.499L98.2 191.599L106.9 183.399C107.2 183.499 107.4 183.499 107.7 183.599C109.1 184.099 110.3 184.899 111.3 186.199L112.9 188.299L117.1 193.599L122.1 199.899L128.8 208.399L132.2 212.699L133.4 214.299C133.5 214.499 133.6 214.599 133.7 214.699Z" fill="#FFB640"/>
    <path d="M146.4 211.3L142.9 212.4L136.1 214.6H128.1L112.5 194L105.9 185.3L107.5 183.6L112.5 178.1C114.8 175.6 118.7 175.6 121 178.1L121.2 178.3L126.4 184L132.5 190.8L133.5 191.9L141.8 201.1L146.2 205.9L147.4 207.3C148.6 208.8 148.1 210.8 146.4 211.3Z" fill="#FFB640"/>
</svg>
