<svg xmlns="http://www.w3.org/2000/svg" width="49" height="49" viewBox="0 0 49 49" fill="none">
    <mask id="mask0" mask-type="alpha" maskUnits="userSpaceOnUse" x="0" y="0" width="49" height="49" fill="#000000">
        <rect width="49" height="49" rx="10" fill="#ffffff"/>
    </mask>
    <g mask="url(#mask0)">
        <rect width="49" height="49" rx="10" fill="#006ad3"/>
        <path d="M24.2297 26.3132C26.837 26.3132 32.9673 23.1753 32.9673 15.6565C32.9673 14.6077 32.9418 13.5946 32.8553 12.6374C32.7134 10.7535 32.3276 9.0839 31.3669 7.80438C30.1346 6.06315 27.9786 5 24.2297 5C20.4813 5 18.3255 6.06272 17.0932 7.80341C16.1319 9.08326 15.7458 10.7533 15.604 12.6378C15.5177 13.5949 15.4922 14.6079 15.4922 15.6566C15.4921 23.1753 21.6223 26.3132 24.2297 26.3132ZM27.0817 8.90406C26.8273 9.54723 26.6998 9.86887 26.4451 10.5119C24.8014 10.0475 23.6577 10.0475 22.014 10.5119C21.7595 9.86887 21.6319 9.54723 21.3773 8.90406C23.433 8.28176 25.0263 8.28187 27.0817 8.90406ZM16.7919 14.0263C16.8926 14.2464 17.3203 15.093 17.9823 15.1723C18.7433 15.2636 20.0063 12.4774 24.2297 12.4706C28.4529 12.4774 29.7161 15.2636 30.4771 15.1723C31.139 15.0929 31.5667 14.2464 31.6674 14.0263C31.6878 14.5658 31.6954 15.112 31.6954 15.6566C31.6954 19.3318 30.0726 21.6089 28.7112 22.872C26.9959 24.4637 25.0914 25.0414 24.2298 25.0414C23.3682 25.0414 21.4637 24.4637 19.7484 22.872C18.3868 21.6089 16.7641 19.3318 16.7641 15.6566C16.764 15.112 16.7715 14.5658 16.7919 14.0263Z" fill="white"/>
        <path d="M40.4507 37.2412C40.0046 34.4675 39.0863 30.8945 37.2443 29.6248C35.9863 28.7574 31.5975 26.4126 29.7233 25.4114L29.6916 25.3945C29.4774 25.2801 29.2158 25.3031 29.0249 25.453C28.0431 26.2237 26.9678 26.7431 25.8286 26.9968C25.6274 27.0416 25.4622 27.1846 25.3892 27.3773L24.2292 30.4349L23.0691 27.3773C22.9962 27.1846 22.831 27.0416 22.6297 26.9968C21.4907 26.7431 20.4153 26.2237 19.4336 25.453C19.2423 25.303 18.9809 25.2801 18.7667 25.3945C16.9149 26.3841 12.4724 28.7767 11.2198 29.6211C9.09919 31.0496 8.17211 36.2194 8.00772 37.2413C7.99151 37.3427 8.00091 37.4463 8.03507 37.5432C8.08003 37.67 8.78134 39.4866 12.2887 40.9472C12.4909 40.6923 12.7602 40.4991 13.0631 40.3903C12.6868 40.2568 12.3602 39.9949 12.1513 39.6434C11.84 39.1197 11.8285 38.4625 12.1204 37.9295C13.0196 36.2835 14.7417 35.2594 16.6168 35.2569C18.361 35.2569 19.942 36.1236 20.8809 37.5322H27.5737C27.7574 37.2578 27.9681 37.0012 28.2046 36.7639C29.1719 35.7938 30.4588 35.2586 31.8283 35.2567H31.8294H31.8305C33.7041 35.2567 35.4284 36.2752 36.3307 37.9156C36.6232 38.448 36.6133 39.1039 36.3039 39.6294C36.0962 39.9809 35.7704 40.2437 35.3945 40.3785C35.7028 40.4876 35.9763 40.6838 36.18 40.943C39.6784 39.4832 40.3786 37.67 40.4236 37.5434C40.4576 37.4462 40.467 37.3425 40.4507 37.2412Z" fill="white"/>
        <path d="M34.8196 41.794H34.8192L31.5946 41.7985C31.5374 41.6627 31.4276 41.2858 31.4265 40.3864C31.425 39.487 31.5335 39.1094 31.5906 38.9733L34.8143 38.9686C34.8914 38.9681 34.9625 38.9276 35.0015 38.8614C35.0408 38.7949 35.0418 38.7132 35.0049 38.6458C34.3688 37.4895 33.1551 36.7715 31.8308 36.7715C30.8652 36.7729 29.9582 37.1503 29.2766 37.834C28.9253 38.1861 28.6573 38.5985 28.4786 39.0472H19.9764C19.4426 37.7162 18.14 36.7718 16.6172 36.7718C15.2968 36.7736 14.0827 37.4958 13.4486 38.6568C13.4116 38.7242 13.4131 38.8062 13.4524 38.8723C13.4916 38.9383 13.5627 38.9786 13.6396 38.9786H13.6398L16.8644 38.9736C16.9218 39.1093 17.0313 39.4863 17.0324 40.3859C17.0339 41.2854 16.9254 41.6628 16.8684 41.7987L13.6446 41.8035C13.5678 41.8037 13.4967 41.8445 13.4575 41.9105C13.4184 41.9768 13.4171 42.0588 13.4543 42.1263C14.0901 43.2824 15.3043 44.001 16.6229 44.001H16.6282C17.594 43.9995 18.5008 43.6221 19.1826 42.9382C19.5339 42.5859 19.8018 42.1734 19.9803 41.7248H28.4823C29.0162 43.0562 30.3179 44.0004 31.8369 44.0006C31.8369 44.0006 31.8418 44.0006 31.842 44.0006C33.1622 43.9988 34.3765 43.2762 35.0106 42.116C35.0476 42.0484 35.046 41.9663 35.0068 41.9004C34.9676 41.8343 34.8965 41.794 34.8196 41.794Z" fill="#80c0ff"/>
    </g>
</svg>