<svg xmlns="http://www.w3.org/2000/svg" width="49" height="49" viewBox="0 0 49 49" fill="none">
    <mask id="mask0" mask-type="alpha" maskUnits="userSpaceOnUse" x="0" y="0" width="49" height="49" fill="#000000">
        <rect width="49" height="49" rx="10" fill="#ffffff"/>
    </mask>
    <g mask="url(#mask0)">
        <rect width="49" height="49" rx="10" fill="#006ad3"/>
        <path d="M45.2988 18.2129V47.5117C45.2988 49.7208 43.508 51.5117 41.2988 51.5117H16C13.7909 51.5117 12 49.7208 12 47.5117V11C12 8.79086 13.7909 7 16 7H34.4257L45.2988 18.2129Z" fill="#006ad3"/>
        <path d="M45.2988 18.2129V47.5117C45.2988 49.7208 43.508 51.5117 41.2988 51.5117H16C13.7909 51.5117 12 49.7208 12 47.5117V11C12 8.79086 13.7909 7 16 7H34.4257M45.2988 18.2129H36.4257C35.3212 18.2129 34.4257 17.3174 34.4257 16.2129V7M45.2988 18.2129L34.4257 7" stroke="#80c0ff" stroke-width="1.36646" fill="#000000"/>
        <path d="M41.2988 22.2129V51.5117C41.2988 53.7208 39.508 55.5117 37.2988 55.5117H12C9.79086 55.5117 8 53.7208 8 51.5117V15C8 12.7909 9.79086 11 12 11H30.4257L41.2988 22.2129Z" fill="#006ad3"/>
        <path d="M41.2988 22.2129V51.5117C41.2988 53.7208 39.508 55.5117 37.2988 55.5117H12C9.79086 55.5117 8 53.7208 8 51.5117V15C8 12.7909 9.79086 11 12 11H30.4257M41.2988 22.2129H32.4257C31.3212 22.2129 30.4257 21.3174 30.4257 20.2129V11M41.2988 22.2129L30.4257 11" stroke="white" stroke-width="1.36646" fill="#000000"/>
        <rect x="12.0781" y="28.668" width="16.3096" height="1.35914" rx="0.679568" fill="#80c0ff"/>
        <rect x="12.0781" y="32.0664" width="21.0666" height="1.35914" rx="0.679568" fill="#80c0ff"/>
        <rect x="12.0781" y="35.4648" width="20.387" height="1.35914" rx="0.679568" fill="white"/>
        <rect x="12.0781" y="38.8633" width="23.1053" height="1.35914" rx="0.679568" fill="white"/>
        <rect x="12.0781" y="42.2598" width="9.51395" height="1.35914" rx="0.679568" fill="#80c0ff"/>
    </g>
</svg>