<svg xmlns="http://www.w3.org/2000/svg" width="32" height="32" viewBox="0 0 32 32" fill="none">
  <path d="M28.1236 20.7951C28.6435 20.098 28.8929 19.3508 28.861 18.5812C28.8292 17.7336 28.4684 17.07 28.1713 16.6629C28.5162 15.7595 28.6488 14.3375 27.4975 13.2334C26.6539 12.4248 25.2213 12.0623 23.237 12.1627C21.8416 12.2296 20.6744 12.5029 20.6266 12.514H20.6213C20.356 12.5642 20.0748 12.6256 19.7883 12.6925C19.7671 12.3356 19.8255 11.4489 20.4515 9.45256C21.1943 7.07699 21.1519 5.25907 20.3136 4.0434C19.4328 2.76639 18.0268 2.66602 17.613 2.66602C17.2151 2.66602 16.849 2.83889 16.589 3.15674C16.0001 3.87611 16.069 5.2033 16.1433 5.81671C15.443 7.79078 13.4798 12.6311 11.8192 13.9751C11.7873 13.9974 11.7608 14.0253 11.7343 14.0531C11.2462 14.5941 10.9172 15.1796 10.6944 15.6926C10.3813 15.5142 10.0258 15.4138 9.64383 15.4138H6.40736C5.18705 15.4138 4.2002 16.4566 4.2002 17.7336V26.7953C4.2002 28.0779 5.19236 29.1151 6.40736 29.1151H9.64383C10.116 29.1151 10.5564 28.959 10.9172 28.6913L12.164 28.8475C12.355 28.8754 15.7507 29.3271 19.2365 29.2546C19.8679 29.3047 20.4621 29.3326 21.0139 29.3326C21.9636 29.3326 22.7913 29.2546 23.4811 29.0984C25.1046 28.736 26.2135 28.011 26.7759 26.9459C27.2057 26.1317 27.2057 25.3232 27.1367 24.8101C28.1925 23.8064 28.3782 22.6966 28.3411 21.9159C28.3199 21.4643 28.2244 21.0795 28.1236 20.7951ZM6.40736 27.6095C5.9776 27.6095 5.63273 27.2415 5.63273 26.7953V17.728C5.63273 17.2763 5.98291 16.9139 6.40736 16.9139H9.64383C10.0736 16.9139 10.4185 17.2819 10.4185 17.728V26.7898C10.4185 27.2415 10.0683 27.6039 9.64383 27.6039H6.40736V27.6095ZM26.7653 20.1426C26.5425 20.388 26.5 20.7616 26.6698 21.0516C26.6698 21.0572 26.8873 21.4475 26.9139 21.9829C26.951 22.7134 26.6167 23.3602 25.9164 23.9123C25.667 24.1131 25.5662 24.4588 25.6723 24.7711C25.6723 24.7767 25.9005 25.5128 25.5291 26.2098C25.1736 26.879 24.383 27.3586 23.184 27.6262C22.2236 27.8437 20.9184 27.8828 19.3161 27.7489C19.2949 27.7489 19.2684 27.7489 19.2418 27.7489C15.8303 27.827 12.3816 27.3586 12.3444 27.353H12.3391L11.8033 27.2861C11.8351 27.1299 11.851 26.9626 11.851 26.7953V17.728C11.851 17.4882 11.8139 17.254 11.7502 17.0365C11.8457 16.6629 12.111 15.832 12.7371 15.1238C15.1193 13.1386 17.4485 6.44128 17.5493 6.1513C17.5918 6.0342 17.6024 5.90594 17.5811 5.77768C17.491 5.15312 17.5228 4.38914 17.6501 4.16051C17.9313 4.16608 18.69 4.24973 19.1463 4.91333C19.6875 5.69961 19.6663 7.10488 19.0827 8.96741C18.1913 11.8058 18.117 13.3003 18.8227 13.9583C19.1729 14.2874 19.6398 14.3041 19.9793 14.1758C20.303 14.0978 20.6107 14.0308 20.9025 13.9806C20.9237 13.9751 20.9503 13.9695 20.9715 13.9639C22.6003 13.5903 25.5185 13.3617 26.5319 14.332C27.3914 15.1573 26.7812 16.2503 26.7122 16.3674C26.5159 16.6797 26.5743 17.0867 26.8396 17.3377C26.8449 17.3433 27.402 17.8953 27.4285 18.637C27.4497 19.1333 27.2269 19.6407 26.7653 20.1426Z" fill="#006ad3"/>
  <path opacity="0.3" d="M28.1236 20.795C28.6435 20.098 28.8929 19.3508 28.861 18.5812C28.8292 17.7336 28.4684 17.07 28.1713 16.6629C28.5161 15.7595 28.6488 14.3375 27.4975 13.2334C26.6538 12.4248 25.2213 12.0623 23.237 12.1627C21.8416 12.2296 20.6743 12.5029 20.6266 12.514H20.6213C20.356 12.5642 20.0748 12.6256 19.7883 12.6925C19.7671 12.3356 19.8254 11.4489 20.4515 9.45255C21.1943 7.07698 21.1519 5.25904 20.3136 4.04337C19.4328 2.76636 18.0268 2.66602 17.613 2.66602C17.215 2.66602 16.8489 2.83888 16.589 3.15674C16 3.8761 16.069 5.20329 16.1433 5.8167C15.4429 7.79076 13.4799 12.6311 11.8192 13.975C11.7873 13.9974 11.7608 14.0252 11.7342 14.0531C11.2461 14.594 10.9172 15.1796 10.6943 15.6926C10.3813 15.5142 10.0258 15.4138 9.64382 15.4138H6.40735C5.18704 15.4138 4.2002 16.4566 4.2002 17.7336V26.7954C4.2002 28.0779 5.19234 29.1151 6.40735 29.1151H9.64382C10.116 29.1151 10.5564 28.959 10.9172 28.6913L12.164 28.8475C12.355 28.8753 15.7507 29.3271 19.2365 29.2546C19.8679 29.3047 20.4621 29.3326 21.0139 29.3326C21.9636 29.3326 22.7913 29.2546 23.4811 29.0984C25.1046 28.7359 26.2135 28.011 26.7759 26.9459C27.2057 26.1317 27.2057 25.3232 27.1367 24.8101C28.1925 23.8064 28.3782 22.6967 28.3411 21.916C28.3199 21.4643 28.2244 21.0795 28.1236 20.795ZM6.40735 27.6095C5.97759 27.6095 5.63272 27.2415 5.63272 26.7954V17.728C5.63272 17.2763 5.98289 16.9138 6.40735 16.9138H9.64382C10.0736 16.9138 10.4184 17.2819 10.4184 17.728V26.7898C10.4184 27.2415 10.0683 27.6039 9.64382 27.6039H6.40735V27.6095Z" fill="#006ad3"/>
</svg>